<svg xmlns="http://www.w3.org/2000/svg" xmlns:xlink="http://www.w3.org/1999/xlink" viewBox="0 0 918.57 444.15"><defs><style>.cls-1,.cls-13,.cls-3{fill:#d54751;}.cls-1,.cls-11,.cls-12,.cls-13,.cls-15,.cls-16,.cls-2,.cls-4,.cls-5,.cls-6,.cls-8,.cls-9{stroke:#59322b;}.cls-1,.cls-11,.cls-13,.cls-15,.cls-5,.cls-8,.cls-9{stroke-linejoin:round;}.cls-1,.cls-11,.cls-12,.cls-13,.cls-15,.cls-2,.cls-4,.cls-5,.cls-6,.cls-8,.cls-9{stroke-width:3px;}.cls-10,.cls-15,.cls-2{fill:#ef9a48;}.cls-12,.cls-17,.cls-4,.cls-5,.cls-8{fill:#fffcc7;}.cls-12,.cls-4,.cls-6{stroke-miterlimit:10;}.cls-11,.cls-16,.cls-6,.cls-9{fill:none;}.cls-11,.cls-12,.cls-13,.cls-15,.cls-6,.cls-8{stroke-linecap:round;}.cls-7{clip-path:url(#clip-path);}.cls-14{fill:#59322b;}.cls-16{stroke-width:7px;}</style><clipPath id="clip-path"><path class="cls-1" d="M688.37,63.29a61.47,61.47,0,0,0-4.67,22.14c6.55-2.21,19-3.56,26.22-1.32-2.44-5-2.73-14.56-2.2-20.82A66.74,66.74,0,0,1,688.37,63.29Z"/></clipPath></defs><g id="Layer_2" data-name="Layer 2"><g id="bg"><polygon class="cls-2" points="1.67 442.61 36.3 116.33 860.2 163.73 916.71 420.74 1.67 442.61"/></g><g id="cat"><ellipse class="cls-3" cx="690.68" cy="200.03" rx="65.62" ry="14.13" transform="translate(-11.25 43.99) rotate(-3.62)"/><path id="tail" class="cls-4" d="M649,150.68s-29.5-4.23-38.69-20.4c-6.83-12-.93-28.2,8.26-38.74,8.09-9.28,6.44-17.07.93-21.32-6.5-5-15.7-1-23.63,8.86-12.9,16-14.23,44.49-5.77,61.59,9,18.29,25.41,24.07,54.28,29.26S649,150.68,649,150.68Z"/><path id="body" class="cls-5" d="M637.7,39.61c.43-7.46,1.64-22.9,9.46-36.64a54.9,54.9,0,0,1,16.06,23.77c10.62-3.32,33.67-3.68,44.45,0,2.7-7.7,8.92-17,15.79-25.22,6.15,7.3,11,30.22,12.27,35.71,3.45,3.52,10.67,22.62,5.24,34.36a41.34,41.34,0,0,1-12.51,15c1.54,9.24,6.35,63,5.78,69.49,6.16.2,12.89,2.89,15.2,5.39s1.93,13.48,0,17.91c6.36,1.15,11.39,3.15,13.62,4.62,4,2.59,3.9,8.31,1,10-3.55,2.08-28.68,4.42-31.57,3.27s-5.19-5-5.77-6.35c-10.4.77-57.56,4-67.57,6.69-2.5,5.43-3.08,7.94-6.35,10.44s-21.75.77-28.1-1.73-5.73-7.1-4.24-9.82c2.14-3.92,9.07-8.62,16.8-9.7-.92-11.74.31-35,3-51.61,2.17-13.28,6.58-26.1,13.68-44.37-5.59-1-18.48-8.31-20.75-18.87A47,47,0,0,1,637.7,39.61Z"/><g id="face"><g id="right_eye" data-name="right eye"><path class="cls-6" d="M664.74,47.65s11.77,2,17.57,8.19c-8,1.85-15.74,6.78-15.74,6.78"/></g><g id="left_eye" data-name="left eye"><path class="cls-6" d="M724.79,44.35s-10.3,3-14.9,9.58c7.26,1.19,14.64,5.47,14.64,5.47"/></g><g id="mouth"><path class="cls-3" d="M688.37,63.29a61.47,61.47,0,0,0-4.67,22.14c6.55-2.21,19-3.56,26.22-1.32-2.44-5-2.73-14.56-2.2-20.82A66.74,66.74,0,0,1,688.37,63.29Z"/><g class="cls-7"><polygon class="cls-8" points="682.62 63.51 689.91 72.03 692.27 68.13 702.3 68.06 704.18 71.74 710.46 65.1 711.54 56.15 684.35 56.15 682.62 63.51"/><polygon class="cls-8" points="711.46 87.44 703.47 78.47 698.52 84.85 694.12 85.69 690.2 78.76 683.7 87.83 687.36 94 707.86 93.13 711.46 87.44"/></g><path class="cls-9" d="M688.37,63.29a61.47,61.47,0,0,0-4.67,22.14c6.55-2.21,19-3.56,26.22-1.32-2.44-5-2.73-14.56-2.2-20.82A66.74,66.74,0,0,1,688.37,63.29Z"/></g></g><path id="belly" class="cls-10" d="M722.88,172.63c0,11.16-11.14,14-28.11,15.13-16.36,1.14-26.37.64-28.49-13.59-2.77-18.66,1.16-39.08,11.07-45.31,6.75-4.24,26.85-19,34.93-20.72C725.12,124.5,722.81,158.31,722.88,172.63Z"/><g id="hige_right" data-name="hige right"><path class="cls-11" d="M659.51,68.93A50.33,50.33,0,0,0,630,74.3"/><path class="cls-11" d="M659.41,74.41c-10.92,1.59-20.25,6.33-26.72,13.33"/><path class="cls-11" d="M659.51,80c-5.88,2.08-17.67,12.17-20.66,19.67"/></g><g id="hige_right-2" data-name="hige right"><path class="cls-11" d="M730.31,64.73c9-1.21,18.93,2.78,24.39,9.61"/><path class="cls-11" d="M730.4,70.21c9,1.59,17.74,8.48,21.61,16.76"/><path class="cls-11" d="M730.31,75.8c4.84,2.08,13,16.78,14.78,24.28"/></g><g id="right_feet" data-name="right feet"><path id="feet" class="cls-11" d="M621,202.9a7.74,7.74,0,0,1,5.42-6"/><path class="cls-11" d="M625,205.9c.58-3,3-6,6.07-6"/></g><g id="left_arm" data-name="left arm"><path class="cls-12" d="M720.28,97.92c2.51-.62,13.93-3.41,14.6-6.91.94-4.9.25-6.47,2.07-10.9,2.15-5.2,7-5.64,11.19-3.68,4.36,2,5.38,6.1,4.21,10.73-.74,2.91-4.83,5.58-5.41,7.41-1.17,3.7,2.41,32.92-19.35,27.34"/></g><g id="megaphone"><path class="cls-13" d="M716.91,65.27c-4.26,11.51-3.28,28.49,1.82,38.1,3,1.63,19.55-10.78,19.55-10.78a6.69,6.69,0,0,1,6-.44l79.8,33.17L822.58,30.5l-79.3,41.56a5.37,5.37,0,0,1-4.12.35S719,64.9,716.91,65.27Z"/><ellipse class="cls-13" cx="824.18" cy="77.85" rx="10.38" ry="47.4" transform="translate(-1.24 14.53) rotate(-1.01)"/></g><g id="right_arm" data-name="right arm"><path class="cls-12" d="M699.7,91.45c5.78-1.15,14.73-3.7,18.87-6.49s4.45-6.07,10.2-7.51c5.45-1.37,9,1.17,11.2,6.16,1.89,4.33.73,10.59-3.21,13.28s-9.44.67-12.51,2.6-33.1,19.87-40.55,25"/><path class="cls-12" d="M739,81.76a29.75,29.75,0,0,0-6.61,1.08"/><path class="cls-12" d="M740.41,87.69a27.84,27.84,0,0,1-5.53,2.37"/></g><ellipse id="nose" class="cls-14" cx="697.57" cy="58.05" rx="2.11" ry="1.44"/><path id="right_ear" data-name="right ear" class="cls-15" d="M645.88,34.32a91.85,91.85,0,0,1,3.75-22.91c3.72,4.2,7.71,12.57,8.86,17.33"/><path id="left_ear" data-name="left ear" class="cls-15" d="M722.81,30.59a187.94,187.94,0,0,1,.93-19.92c3.08,3.69,5.9,19.32,6.57,22.3"/><path class="cls-11" d="M758.53,186.85c3,.29,6.26,2.44,6.56,5.45"/></g><g id="logo"><g id="logo1"><path class="cls-3" d="M369.55,390q-16.83,3.84-17.67.14L324.53,270.33q-1.42-6.29,4.3-7.6l32.55-7.42q27.36-6.26,42.05,2.27t19.58,30q4,17.76-4,35.16-4.05,8.71-14.13,15.68T380,348.72l7.55,33.1q.51,2.22-6.24,4.63A105.12,105.12,0,0,1,369.55,390Zm-3.42-101.94,6.67,29.22,2.4-.55a16,16,0,0,0,10-6.56q3.51-5.07,1.82-12.48t-5.45-9.84q-3.78-2.44-11.54-.68Z"/><path class="cls-3" d="M477.22,388q-.2,4.37-21.8,3.44T434,386.1l6.37-137L414.18,248q-3.72-.17-4.81-10.26a73.12,73.12,0,0,1-.24-9.85,74.22,74.22,0,0,1,1.08-9.79q1.95-10,5.66-9.82l94.94,4q3.7.17,4.81,10.26a73.54,73.54,0,0,1-.84,19.65q-1.95,10-5.66,9.81L483.58,251Z"/><path class="cls-3" d="M633.09,391.74q-17.24,2.13-17.7-1.66L600.2,267.36q-.8-6.44,5.08-7.16l33.33-4.13q28-3.47,41.86,6.55t16.55,32q2.25,18.18-7.62,34.78-4.93,8.31-15.73,14.26t-25.95,7.82l4.19,33.9q.29,2.28-6.71,4A106.33,106.33,0,0,1,633.09,391.74ZM640,289.35l3.71,29.93,2.46-.31a16,16,0,0,0,10.66-5.55q4-4.73,3.09-12.3t-4.46-10.41Q652,287.88,644,288.86Z"/><path class="cls-3" d="M838.12,384.63q-15.47.72-16.94-4.2l-6.93-22.67L786,359.06l-4.14,22.29q-.81,5.56-16.81,6.3a59.07,59.07,0,0,1-12.67-.4c-2.76-.52-4.15-1-4.16-1.32L774.12,264.1q-.07-1.43,24.29-2.55t24.43.3L859.16,381q.06,1.25-8.09,2.33T838.12,384.63Zm-48.73-48.35,18.67-.86L798.36,299l-1.07,0Z"/><path class="cls-3" d="M67.6,211.37q-.34-2.82,23.13-5.74t24.57-.45l26,58.26,10.11-63.27q.76-2.17,15.65-4,34.13-4.24,33-.72L156.25,395.25q-.06,1.58-13.79,3.27t-25.64,2.28q-11.92.57-11.56-.78l20.47-77.33Z"/><path class="cls-3" d="M503.37,369q-12.53-16-10.6-42.6t16.63-40.63q14.72-14,37.81-12.37T582.72,291q12.42,16,10.49,42.59t-16.53,40.64Q562.09,388.33,539,386.65T503.37,369Zm41.31-59.21q-12.31-.89-13.77,19.16t10.86,20.93q12.3.9,13.76-19.15T544.68,309.74Z"/><path class="cls-3" d="M750.32,290.94q-.23,1.28-16.81-1.58t-16.41-3.93l4.48-26.11q.3-1.81,16.9,1t16.41,3.93Zm-17.11,99.75q-.24,1.46-16.84-1.4T700,385.18l15.27-89.05q.22-1.26,16.82,1.58t16.4,3.93Z"/><path class="cls-3" d="M295.82,253.2c0-1.09-29.67-.74-51.85-.08s-35.11,1.6-35.08,2.69L170,395q0,.62,5.64,1.56t17.28.61q21.86-.66,23.13-7l6.29-25.47,59-1.77,8.8,26q1.86,5.66,23,5,6.57-.19,17.71-1.35T342,390Zm-36.66,18.69,12.36-8a2.8,2.8,0,1,1,3,4.7l-8.48,5.46,9.94,5.64a2.8,2.8,0,0,1-1.3,5.23,2.74,2.74,0,0,1-1.46-.37l-13.95-7.91a2.79,2.79,0,0,1-.14-4.78Zm-33.78-1.79a2.79,2.79,0,1,1,2.74-4.87l12.82,7.21a2.8,2.8,0,0,1,.15,4.78L227.64,286a2.71,2.71,0,0,1-1.43.45,2.8,2.8,0,0,1-1.62-5.14l9.58-6.22Zm47.47,67.14-6.09-8.09-5.26,8.43-19.28.58-6.32-8.31-5.77,8.68-12.36.37,10.58-42.51,7-.21,5.18,7,4.45-7.32,10.86-.33,5.32,7.18,4.86-7.48,7.42-.23,11.65,41.84Z"/><path class="cls-3" d="M295.82,253.2c0-1.09-29.67-.74-51.85-.08s-35.11,1.6-35.08,2.69L170,395q0,.62,5.64,1.56t17.28.61q21.86-.66,23.13-7l6.29-25.47,59-1.77,8.8,26q1.86,5.66,23,5,6.57-.19,17.71-1.35T342,390Zm-36.66,18.69,12.36-8a2.8,2.8,0,1,1,3,4.7l-8.48,5.46,9.94,5.64a2.8,2.8,0,0,1-1.3,5.23,2.74,2.74,0,0,1-1.46-.37l-13.95-7.91a2.79,2.79,0,0,1-.14-4.78Zm-33.78-1.79a2.79,2.79,0,1,1,2.74-4.87l12.82,7.21a2.8,2.8,0,0,1,.15,4.78L227.64,286a2.71,2.71,0,0,1-1.43.45,2.8,2.8,0,0,1-1.62-5.14l9.58-6.22Zm47.47,67.14-6.09-8.09-5.26,8.43-19.28.58-6.32-8.31-5.77,8.68-12.36.37,10.58-42.51,7-.21,5.18,7,4.45-7.32,10.86-.33,5.32,7.18,4.86-7.48,7.42-.23,11.65,41.84Z"/><path class="cls-3" d="M295.82,253.2c0-1.09-29.67-.74-51.85-.08s-35.11,1.6-35.08,2.69L170,395q0,.62,5.64,1.56t17.28.61q21.86-.66,23.13-7l6.29-25.47,59-1.77,8.8,26q1.86,5.66,23,5,6.57-.19,17.71-1.35T342,390Zm-36.66,18.69,12.36-8a2.8,2.8,0,1,1,3,4.7l-8.48,5.46,9.94,5.64a2.8,2.8,0,0,1-1.3,5.23,2.74,2.74,0,0,1-1.46-.37l-13.95-7.91a2.79,2.79,0,0,1-.14-4.78Zm-33.78-1.79a2.79,2.79,0,1,1,2.74-4.87l12.82,7.21a2.8,2.8,0,0,1,.15,4.78L227.64,286a2.71,2.71,0,0,1-1.43.45,2.8,2.8,0,0,1-1.62-5.14l9.58-6.22Zm47.47,67.14-6.09-8.09-5.26,8.43-19.28.58-6.32-8.31-5.77,8.68-12.36.37,10.58-42.51,7-.21,5.18,7,4.45-7.32,10.86-.33,5.32,7.18,4.86-7.48,7.42-.23,11.65,41.84Z"/><path class="cls-16" d="M364.55,377q-16.83,3.84-17.67.14L319.53,257.33q-1.42-6.28,4.3-7.6l32.55-7.42q27.36-6.26,42.05,2.27t19.58,30q4,17.76-4,35.16-4.05,8.71-14.13,15.68T375,335.72l7.55,33.1q.51,2.22-6.24,4.63A105.12,105.12,0,0,1,364.55,377Zm-3.42-101.94,6.67,29.22,2.4-.55a16,16,0,0,0,10-6.56q3.51-5.07,1.82-12.48t-5.45-9.84q-3.78-2.44-11.54-.68Z"/><path class="cls-16" d="M472.22,375q-.2,4.37-21.8,3.44T429,373.1l6.37-137L409.18,235q-3.72-.17-4.81-10.26a73.12,73.12,0,0,1-.24-9.85,74.22,74.22,0,0,1,1.08-9.79q1.95-10,5.66-9.82l94.94,4q3.7.17,4.81,10.26a73.54,73.54,0,0,1-.84,19.65q-1.95,10-5.66,9.81L478.58,238Z"/><path class="cls-16" d="M628.09,378.74q-17.24,2.13-17.7-1.66L595.2,254.36q-.8-6.44,5.08-7.16l33.33-4.13q28-3.47,41.86,6.55t16.55,32q2.25,18.18-7.62,34.78-4.93,8.31-15.73,14.26t-25.95,7.82l4.19,33.9q.29,2.28-6.71,4A106.33,106.33,0,0,1,628.09,378.74ZM635,276.35l3.71,29.93,2.46-.31a16,16,0,0,0,10.66-5.55q4-4.73,3.09-12.3t-4.46-10.41Q647,274.88,639,275.86Z"/><path class="cls-16" d="M833.12,371.63q-15.47.72-16.94-4.2l-6.93-22.67L781,346.06l-4.14,22.29q-.81,5.56-16.81,6.3a59.07,59.07,0,0,1-12.67-.4c-2.76-.52-4.15-1-4.16-1.32L769.12,251.1q-.07-1.42,24.29-2.55t24.43.3L854.16,368q.06,1.25-8.09,2.33T833.12,371.63Zm-48.73-48.35,18.67-.86L793.36,286l-1.07,0Z"/><path class="cls-16" d="M62.6,198.37q-.35-2.82,23.13-5.74t24.57-.45l26,58.26,10.11-63.27q.76-2.17,15.65-4,34.13-4.24,33-.72L151.25,382.25q-.06,1.58-13.79,3.27t-25.64,2.28q-11.92.57-11.56-.78l20.47-77.33Z"/><path class="cls-16" d="M498.37,356q-12.53-16-10.6-42.6t16.63-40.63q14.72-14,37.81-12.37T577.72,278q12.42,16,10.49,42.59t-16.53,40.64Q557.09,375.33,534,373.65T498.37,356Zm41.31-59.21q-12.31-.89-13.77,19.16t10.86,20.93q12.3.9,13.76-19.15T539.68,296.74Z"/><path class="cls-16" d="M745.32,277.94q-.23,1.28-16.81-1.58t-16.41-3.93l4.48-26.11q.3-1.81,16.9,1t16.41,3.93Zm-17.11,99.75q-.24,1.46-16.84-1.4T695,372.18l15.27-89.05q.22-1.26,16.82,1.58t16.4,3.93Z"/><path class="cls-16" d="M290.82,240.2c0-1.09-29.67-.74-51.85-.08s-35.11,1.6-35.08,2.69L165,382q0,.62,5.64,1.56t17.28.61q21.86-.66,23.13-7l6.29-25.47,59-1.77,8.8,26q1.86,5.66,23,5,6.57-.19,17.71-1.35T337,377Zm-36.66,18.69,12.36-8a2.8,2.8,0,1,1,3,4.7l-8.48,5.46,9.94,5.64a2.8,2.8,0,0,1-1.3,5.23,2.74,2.74,0,0,1-1.46-.37l-13.95-7.91a2.79,2.79,0,0,1-.14-4.78Zm-33.78-1.79a2.79,2.79,0,1,1,2.74-4.87l12.82,7.21a2.8,2.8,0,0,1,.15,4.78L222.64,273a2.71,2.71,0,0,1-1.43.45,2.8,2.8,0,0,1-1.62-5.14l9.58-6.22Zm47.47,67.14-6.09-8.09-5.26,8.43-19.28.58-6.32-8.31-5.77,8.68-12.36.37,10.58-42.51,7-.21,5.18,7,4.45-7.32,10.86-.33,5.32,7.18,4.86-7.48,7.42-.23,11.65,41.84Z"/><path class="cls-16" d="M290.82,240.2c0-1.09-29.67-.74-51.85-.08s-35.11,1.6-35.08,2.69L165,382q0,.62,5.64,1.56t17.28.61q21.86-.66,23.13-7l6.29-25.47,59-1.77,8.8,26q1.86,5.66,23,5,6.57-.19,17.71-1.35T337,377Zm-36.66,18.69,12.36-8a2.8,2.8,0,1,1,3,4.7l-8.48,5.46,9.94,5.64a2.8,2.8,0,0,1-1.3,5.23,2.74,2.74,0,0,1-1.46-.37l-13.95-7.91a2.79,2.79,0,0,1-.14-4.78Zm-33.78-1.79a2.79,2.79,0,1,1,2.74-4.87l12.82,7.21a2.8,2.8,0,0,1,.15,4.78L222.64,273a2.71,2.71,0,0,1-1.43.45,2.8,2.8,0,0,1-1.62-5.14l9.58-6.22Zm47.47,67.14-6.09-8.09-5.26,8.43-19.28.58-6.32-8.31-5.77,8.68-12.36.37,10.58-42.51,7-.21,5.18,7,4.45-7.32,10.86-.33,5.32,7.18,4.86-7.48,7.42-.23,11.65,41.84Z"/><path class="cls-16" d="M290.82,240.2c0-1.09-29.67-.74-51.85-.08s-35.11,1.6-35.08,2.69L165,382q0,.62,5.64,1.56t17.28.61q21.86-.66,23.13-7l6.29-25.47,59-1.77,8.8,26q1.86,5.66,23,5,6.57-.19,17.71-1.35T337,377Zm-36.66,18.69,12.36-8a2.8,2.8,0,1,1,3,4.7l-8.48,5.46,9.94,5.64a2.8,2.8,0,0,1-1.3,5.23,2.74,2.74,0,0,1-1.46-.37l-13.95-7.91a2.79,2.79,0,0,1-.14-4.78Zm-33.78-1.79a2.79,2.79,0,1,1,2.74-4.87l12.82,7.21a2.8,2.8,0,0,1,.15,4.78L222.64,273a2.71,2.71,0,0,1-1.43.45,2.8,2.8,0,0,1-1.62-5.14l9.58-6.22Zm47.47,67.14-6.09-8.09-5.26,8.43-19.28.58-6.32-8.31-5.77,8.68-12.36.37,10.58-42.51,7-.21,5.18,7,4.45-7.32,10.86-.33,5.32,7.18,4.86-7.48,7.42-.23,11.65,41.84Z"/><path class="cls-17" d="M364.55,377q-16.83,3.84-17.67.14L319.53,257.33q-1.42-6.28,4.3-7.6l32.55-7.42q27.36-6.26,42.05,2.27t19.58,30q4,17.76-4,35.16-4.05,8.71-14.13,15.68T375,335.72l7.55,33.1q.51,2.22-6.24,4.63A105.12,105.12,0,0,1,364.55,377Zm-3.42-101.94,6.67,29.22,2.4-.55a16,16,0,0,0,10-6.56q3.51-5.07,1.82-12.48t-5.45-9.84q-3.78-2.44-11.54-.68Z"/><path class="cls-17" d="M472.22,375q-.2,4.37-21.8,3.44T429,373.1l6.37-137L409.18,235q-3.72-.17-4.81-10.26a73.12,73.12,0,0,1-.24-9.85,74.22,74.22,0,0,1,1.08-9.79q1.95-10,5.66-9.82l94.94,4q3.7.17,4.81,10.26a73.54,73.54,0,0,1-.84,19.65q-1.95,10-5.66,9.81L478.58,238Z"/><path class="cls-17" d="M628.09,378.74q-17.24,2.13-17.7-1.66L595.2,254.36q-.8-6.44,5.08-7.16l33.33-4.13q28-3.47,41.86,6.55t16.55,32q2.25,18.18-7.62,34.78-4.93,8.31-15.73,14.26t-25.95,7.82l4.19,33.9q.29,2.28-6.71,4A106.33,106.33,0,0,1,628.09,378.74ZM635,276.35l3.71,29.93,2.46-.31a16,16,0,0,0,10.66-5.55q4-4.73,3.09-12.3t-4.46-10.41Q647,274.88,639,275.86Z"/><path class="cls-17" d="M833.12,371.63q-15.47.72-16.94-4.2l-6.93-22.67L781,346.06l-4.14,22.29q-.81,5.56-16.81,6.3a59.07,59.07,0,0,1-12.67-.4c-2.76-.52-4.15-1-4.16-1.32L769.12,251.1q-.07-1.42,24.29-2.55t24.43.3L854.16,368q.06,1.25-8.09,2.33T833.12,371.63Zm-48.73-48.35,18.67-.86L793.36,286l-1.07,0Z"/><path class="cls-17" d="M62.6,198.37q-.35-2.82,23.13-5.74t24.57-.45l26,58.26,10.11-63.27q.76-2.17,15.65-4,34.13-4.24,33-.72L151.25,382.25q-.06,1.58-13.79,3.27t-25.64,2.28q-11.92.57-11.56-.78l20.47-77.33Z"/><path class="cls-17" d="M498.37,356q-12.53-16-10.6-42.6t16.63-40.63q14.72-14,37.81-12.37T577.72,278q12.42,16,10.49,42.59t-16.53,40.64Q557.09,375.33,534,373.65T498.37,356Zm41.31-59.21q-12.31-.89-13.77,19.16t10.86,20.93q12.3.9,13.76-19.15T539.68,296.74Z"/><path class="cls-17" d="M745.32,277.94q-.23,1.28-16.81-1.58t-16.41-3.93l4.48-26.11q.3-1.81,16.9,1t16.41,3.93Zm-17.11,99.75q-.24,1.46-16.84-1.4T695,372.18l15.27-89.05q.22-1.26,16.82,1.58t16.4,3.93Z"/><path class="cls-17" d="M290.82,240.2c0-1.09-29.67-.74-51.85-.08s-35.11,1.6-35.08,2.69L165,382q0,.62,5.64,1.56t17.28.61q21.86-.66,23.13-7l6.29-25.47,59-1.77,8.8,26q1.86,5.66,23,5,6.57-.19,17.71-1.35T337,377Zm-36.66,18.69,12.36-8a2.8,2.8,0,1,1,3,4.7l-8.48,5.46,9.94,5.64a2.8,2.8,0,0,1-1.3,5.23,2.74,2.74,0,0,1-1.46-.37l-13.95-7.91a2.79,2.79,0,0,1-.14-4.78Zm-33.78-1.79a2.79,2.79,0,1,1,2.74-4.87l12.82,7.21a2.8,2.8,0,0,1,.15,4.78L222.64,273a2.71,2.71,0,0,1-1.43.45,2.8,2.8,0,0,1-1.62-5.14l9.58-6.22Zm47.47,67.14-6.09-8.09-5.26,8.43-19.28.58-6.32-8.31-5.77,8.68-12.36.37,10.58-42.51,7-.21,5.18,7,4.45-7.32,10.86-.33,5.32,7.18,4.86-7.48,7.42-.23,11.65,41.84Z"/></g></g></g></svg>